<svg width="680" height="967" viewBox="0 0 680 967" fill="none" xmlns="http://www.w3.org/2000/svg">
<circle cx="430" cy="585" r="250" fill="url(#paint0_linear)"/>
<circle cx="150" cy="357" r="150" fill="url(#paint1_linear)"/>
<path d="M543 150C543 232.843 475.843 300 393 300C310.157 300 243 232.843 243 150C243 67.1573 310.157 0 393 0C475.843 0 543 67.1573 543 150Z" fill="url(#paint2_linear)"/>
<circle cx="120" cy="738" r="50" fill="url(#paint3_linear)"/>
<circle cx="356" cy="901" r="50" fill="url(#paint4_linear)"/>
<path d="M283.762 315.173L250.275 343.793L208.095 309.082V293.957C208.095 293.957 226.59 292.343 223.84 270.067C223.724 269.142 223.58 268.2 223.406 267.203C223.252 266.342 223.068 265.463 222.866 264.548C222.837 264.448 222.818 264.339 222.789 264.23C222.47 262.844 222.065 261.366 221.592 259.835C221.351 258.983 221.062 258.113 220.772 257.216L223.609 257.116L262.325 255.793C262.325 255.793 262.325 255.793 262.335 255.793L267.708 255.621C267.708 255.621 267.477 256.201 267.158 257.216C267.149 257.279 267.129 257.343 267.11 257.397C266.927 257.941 266.724 258.575 266.522 259.327C265.981 261.221 265.354 263.741 264.901 266.578C264.862 266.75 264.833 266.922 264.814 267.094C264.785 267.257 264.766 267.43 264.737 267.584C264.66 268.109 264.582 268.644 264.515 269.179C264.467 269.586 264.428 269.985 264.39 270.393C264.148 272.786 264.206 275.323 264.611 277.825V277.861C264.66 278.142 264.718 278.441 264.766 278.722C266.387 287.023 271.876 294.953 283.087 297.319L283.762 315.173Z" fill="#F6C48D"/>
<path d="M218.331 233.933C217.772 234.105 217.203 233.688 216.884 233.217C216.566 232.746 216.383 232.184 215.968 231.794C215.196 231.069 213.855 231.196 212.987 231.821C212.118 232.447 211.636 233.435 211.26 234.404C210.575 236.153 210.112 238.002 210.16 239.869C210.208 241.736 210.816 243.621 212.07 245.053C212.475 245.515 212.967 245.941 213.565 246.141C214.164 246.34 214.897 246.277 215.35 245.851C215.534 245.688 215.669 245.47 215.833 245.289C216.373 244.682 217.27 244.374 218.09 244.537C218.09 241.066 218.331 237.404 218.331 233.933Z" fill="#F6C48D"/>
<path d="M215.978 233.978C215.197 230.615 213.788 225.64 211.772 222.613C211.174 221.707 210.99 220.61 211.183 219.559L214.193 203.119C214.367 202.176 214.849 201.306 215.573 200.654C220.879 195.859 244.343 177.634 272.938 199.974C274.193 200.953 274.8 202.475 274.636 204.007C274.405 206.1 274.54 209.263 276.749 211.819C277.781 213.015 278.196 214.592 277.724 216.07L272.215 233.461C271.626 235.319 269.851 236.597 267.825 236.633L220.609 237.476C218.409 237.503 216.461 236.053 215.978 233.978Z" fill="#21252B"/>
<path opacity="0.19" d="M267.168 257.216C267.158 257.279 267.14 257.343 267.121 257.397C266.937 257.941 266.735 258.575 266.532 259.327C265.992 261.222 265.365 263.741 264.911 266.578C264.873 266.75 264.844 266.922 264.825 267.094C264.796 267.257 264.775 267.43 264.746 267.584C264.669 268.109 264.593 268.644 264.525 269.179C264.477 269.587 264.439 269.985 264.4 270.393C264.159 272.786 264.216 275.323 264.621 277.825V277.861C264.669 278.142 264.728 278.441 264.776 278.722C262.461 278.994 260.126 279.112 257.791 279.075C252.833 278.994 247.507 278.523 242.973 276.483C240.86 275.541 238.901 274.299 237.165 272.813C236.306 272.061 235.496 271.263 234.762 270.402C234.425 270.022 233.219 267.856 232.833 267.783C239.017 268.916 245.596 270.004 251.423 267.747C253.748 266.85 255.804 265.463 257.83 264.058C260.985 261.856 264.11 259.572 267.168 257.216Z" fill="black"/>
<path d="M270.112 214.747V246.676C270.112 251.298 268.809 255.621 266.523 259.327C261.969 266.75 253.537 271.725 243.899 271.725C234.473 271.725 226.215 266.967 221.593 259.835C219.114 256.01 217.686 251.506 217.686 246.676V214.747H270.112Z" fill="#F6C48D"/>
<path d="M169.912 335.465C166.343 327.181 163.198 318.626 160.448 309.962C161.152 312.074 165.195 324.064 169.912 335.465Z" fill="#F6C48D"/>
<path d="M233.326 82.6467C232.593 83.2992 231.859 84.0061 231.097 84.7674C231.049 84.8127 230.991 84.8671 230.943 84.9124V84.9215C230.943 84.9215 230.866 84.994 230.682 85.1662C230.557 85.3112 230.403 85.4743 230.229 85.6193C213.066 103.455 191.522 142.815 180.302 164.448C175.623 173.502 172.748 179.447 172.748 179.447C170.577 184.939 174.745 204.57 179.791 223.937V223.946H179.8V223.955C179.81 224 179.849 224.127 179.887 224.327C180.389 226.239 180.9 228.133 181.402 230.018C181.431 230.091 181.441 230.181 181.469 230.263C182.048 232.402 182.627 234.504 183.206 236.561C183.467 237.486 183.717 238.392 183.968 239.289C184.007 239.398 184.036 239.507 184.074 239.634C184.354 240.64 184.644 241.637 184.923 242.615C185.319 244.029 185.724 245.407 186.11 246.73C186.342 247.5 186.563 248.253 186.776 248.987C187.133 250.219 187.48 251.379 187.818 252.512C188.04 253.264 188.252 253.998 188.474 254.714C188.85 255.956 189.197 257.125 189.525 258.213C189.651 258.62 189.766 259.01 189.882 259.391C189.95 259.572 189.998 259.771 190.046 259.944C190.162 260.324 190.278 260.678 190.384 261.022C190.702 262.055 190.992 262.998 191.243 263.814C191.32 264.085 191.407 264.339 191.484 264.584C191.677 265.209 191.841 265.735 191.976 266.179C192.024 266.324 192.063 266.451 192.101 266.569C192.333 267.285 192.449 267.665 192.449 267.665C192.449 267.665 192.439 267.692 192.41 267.729L188.889 272.314L186.534 275.396C186.525 275.405 186.525 275.405 186.506 275.423L160.331 309.608C158.913 305.176 157.611 300.718 156.395 296.259C153.684 286.371 151.417 276.492 149.545 266.913C140.312 219.877 140.119 179.846 140.119 179.846C136.357 159.654 222.752 65.2822 222.752 65.2822L222.839 65.4272L233.326 82.6467Z" fill="#F6C48D"/>
<path d="M328.373 353.155L328.363 353.146C326.945 351.805 325.624 350.301 324.341 348.66C324.332 348.633 324.293 348.597 324.254 348.56C322.122 345.823 320.144 342.715 318.301 339.344C317.905 338.619 317.501 337.857 317.115 337.096C317.115 337.087 317.115 337.087 317.115 337.087C315.967 334.812 314.877 332.456 313.854 330.036C313.825 329.973 313.805 329.927 313.776 329.864C304.331 307.478 300.29 280.335 299.817 276.873L300.405 275.468L304.36 266.206C304.36 266.206 322.391 188.139 316.786 176.765C316.786 176.765 286.445 124.508 261.226 96.2773C260.657 95.661 260.116 95.0629 259.566 94.4556C259.566 94.4466 259.556 94.4466 259.556 94.4466C255.697 90.2414 251.964 86.6706 248.51 83.979L248.694 83.6618L249.194 82.7192L249.774 81.677L257.116 68.0283C257.116 68.0283 325.836 130.408 344.649 161.829C347.89 167.267 349.666 171.726 349.357 174.744C349.357 174.744 359.429 281.006 328.373 353.155Z" fill="#F6C48D"/>
<path d="M308.385 617.936L307.044 617.909L305.626 617.873L271.203 617.112L269.63 617.084L264.758 616.976L264.826 621.987L264.864 625.123L265.935 707.713V707.84L268.125 876.536V876.709L268.173 877.189L271.762 893.33L273.2 895.532L277.725 902.474L280.04 941.626L280.069 942.07C280.117 942.133 280.156 942.179 280.194 942.242C283.127 946.021 282.076 953.788 282.076 953.788L279.982 956.562L273.074 965.724C272.264 966.078 271.367 966.286 270.469 966.386C266.417 966.775 262.066 964.899 262.066 964.899C256.644 967.283 252.602 963.721 252.602 963.721C251.917 963.975 251.29 964.138 250.721 964.211C246.244 964.809 245.144 960.141 245.144 960.141C239.24 961.637 239.105 955.547 239.105 955.547C232.892 954.957 237.706 947.091 237.706 947.091L250.904 931.494L251.512 930.796L248.569 892.958L241.69 876.709L240.62 874.18C240.61 874.171 240.61 874.171 240.62 874.153C240.465 873.636 240.311 873.056 240.127 872.395C235.323 854.468 216.549 783.298 201.267 707.949C190.239 653.581 181.035 597.037 180.196 556.735C180.148 554.668 180.128 552.647 180.128 550.663C180.138 538.183 181.016 527.507 182.984 519.251C183.804 515.798 184.827 512.78 186.033 510.206C186.033 510.206 234.184 515.907 281.497 510.859C281.68 510.831 281.854 510.822 282.037 510.795L282.143 510.786L282.963 514.139L283.783 517.493L287.43 532.401L288.868 538.31L307.459 614.166L308.346 617.791L308.385 617.936Z" fill="#F6C48D"/>
<path d="M308.386 617.936L305.636 617.873L271.213 617.112L269.641 617.084L264.769 616.976L264.836 621.987L264.875 625.123L265.946 707.713H265.598L251.995 707.759L200.38 707.94C200.37 707.84 200.341 707.759 200.332 707.659C189.246 650.59 180.1 591.156 180.139 550.654C180.149 532.963 181.914 518.897 186.043 510.206C186.043 510.206 234.639 515.952 282.154 510.786L288.888 538.319L308.386 617.936Z" fill="#0C1153"/>
<path opacity="0.15" d="M280.194 942.224C280.069 942.36 279.915 942.478 279.77 942.604C278.217 940.42 277.917 937.656 277.686 935.01C276.441 921.125 275.187 906.797 268.366 894.481C264.536 887.566 262.182 883.079 261.362 876.69C261.14 875.004 261.024 873.201 261.024 871.171C261.024 867.718 260.638 864.247 260.455 860.803C259.867 850.118 259.268 839.442 258.68 828.757C256.442 788.418 256.789 748.088 254.551 707.749L265.925 707.713V707.822L268.115 876.518V876.69L268.164 877.17L271.753 893.311L273.19 895.514L277.715 902.456L280.03 941.608L280.059 942.052C280.117 942.115 280.156 942.16 280.194 942.224Z" fill="black"/>
<path d="M265.589 707.713L254.561 707.758L252.121 634.974L264.315 621.987L264.354 625.123L265.589 707.713Z" fill="black"/>
<path d="M494.7 636.723V636.822C494.401 644.897 490.957 655.129 477.218 661.301C471.468 663.902 463.923 665.787 454.044 666.494C402.11 664.981 315.088 645.804 309.705 644.508L309.714 644.553L309.56 644.471L308.393 636.496L305.643 617.872L305.267 615.389L305.18 614.772L305.035 614.156L288.248 538.363L282.141 510.776C290.023 509.87 297.211 508.981 303.984 507.676H303.993C309.068 506.707 313.901 505.501 318.639 503.879C319.594 503.571 320.529 503.226 321.465 502.873C321.465 502.873 321.494 502.955 321.542 503.127C322.353 505.918 329.772 530.433 335.86 531.892C335.86 531.892 336.631 532.173 338.059 532.717C354.248 538.835 455.694 578.512 492.906 624.714C492.906 624.714 492.906 624.723 492.916 624.741C492.916 624.751 492.925 624.778 492.925 624.805C492.993 624.968 493.128 625.358 493.311 625.974C493.388 626.228 493.465 626.527 493.552 626.844C493.601 627.053 493.668 627.27 493.716 627.506C493.832 627.977 493.948 628.484 494.054 629.055C494.083 629.191 494.102 629.336 494.131 629.481C494.363 630.696 494.546 632.101 494.642 633.632C494.652 633.804 494.652 633.977 494.671 634.149C494.71 634.983 494.72 635.834 494.7 636.723Z" fill="#0C1153"/>
<g opacity="0.67">
<path opacity="0.67" d="M335.862 531.912C331.173 531.332 326.031 531.014 320.541 530.915C266.62 529.981 180.128 550.654 180.128 550.654C180.138 532.963 181.904 518.888 186.023 510.197C186.023 510.197 234.619 515.943 282.134 510.777C287.112 510.197 291.81 509.644 296.296 508.964H296.306C298.93 508.575 301.477 508.149 303.966 507.677H303.976C309.06 506.708 313.894 505.511 318.621 503.889L321.525 503.146C322.355 505.928 329.764 530.452 335.862 531.912Z" fill="black"/>
</g>
<g opacity="0.35">
<path opacity="0.35" d="M494.691 636.715C479.264 599.956 321.457 533.614 321.457 533.614L318.987 530.815C324.476 530.906 331.172 531.331 335.861 531.911C335.861 531.911 335.976 531.956 336.198 532.028C336.256 532.056 336.324 532.075 336.382 532.102C336.459 532.129 336.526 532.165 336.604 532.183C336.642 532.193 336.661 532.211 336.7 532.22C347.255 536.162 454.421 576.945 492.896 624.733C492.896 624.733 494.903 629.954 494.691 636.715Z" fill="black"/>
</g>
<g opacity="0.35">
<path opacity="0.35" d="M287.015 616.323L281.497 510.813L282.78 510.75L288.308 616.259L287.015 616.323Z" fill="black"/>
</g>
<path d="M200.57 313.069V313.078C197.888 326.718 191.906 336.415 186.697 342.65V342.659C182.104 348.161 178.139 350.943 177.56 351.333L177.493 351.369C177.483 351.378 177.483 351.378 177.483 351.378C177.415 351.242 177.358 351.124 177.29 350.988C174.647 345.967 172.186 340.765 169.91 335.464C165.192 324.062 161.159 312.072 160.445 309.961C160.378 309.743 160.339 309.625 160.339 309.625L192.456 267.691L200.859 283.706C200.888 283.841 200.898 283.977 200.908 284.086C200.908 284.122 200.908 284.159 200.917 284.195C201.149 285.717 201.332 287.204 201.486 288.663V288.726C201.496 288.735 201.496 288.763 201.496 288.772C201.496 288.781 201.496 288.781 201.496 288.799C202.442 297.97 201.94 306.055 200.57 313.069Z" fill="#F6C48D"/>
<path d="M177.28 350.989C177.348 351.125 177.406 351.243 177.473 351.379C175.013 347.237 172.36 341.428 169.9 335.456C172.177 340.775 174.637 345.968 177.28 350.989Z" fill="white"/>
<path d="M328.364 353.137C328.21 353.037 326.946 352.195 324.988 350.554C323.106 349.023 320.608 346.775 317.868 343.784C316.469 342.262 315.002 340.531 313.526 338.609C304.67 327.136 295.456 308.702 297.289 282.791L297.646 281.957L299.817 276.855C300.29 280.317 304.332 307.469 313.777 329.846C313.806 329.909 313.825 329.954 313.854 330.018C314.887 332.438 315.977 334.794 317.115 337.069C317.115 337.069 317.115 337.069 317.115 337.078C317.501 337.839 317.897 338.6 318.302 339.325C320.144 342.688 322.122 345.796 324.254 348.542C324.293 348.579 324.332 348.615 324.341 348.642C325.624 350.291 326.946 351.805 328.364 353.137Z" fill="#F6C48D"/>
<g opacity="0.15">
<path opacity="0.15" d="M188.048 500.518V500.509C187.961 500.5 187.865 500.482 187.778 500.445L188.183 495.324L319.537 492.071L320.145 495.496C320.048 495.523 319.932 495.542 319.826 495.57L319.537 495.633L188.048 500.518Z" fill="black"/>
</g>
<g opacity="0.15">
<path opacity="0.15" d="M328.374 353.146L328.364 353.137C327.178 352.621 326.039 351.705 324.978 350.563C320.415 345.778 314.732 343.041 314.732 343.041C314.732 343.041 366.251 252.367 344.63 161.829H344.64C347.891 167.267 349.657 171.726 349.348 174.735C349.358 174.744 359.43 281.006 328.374 353.146Z" fill="black"/>
</g>
<path d="M297.278 282.8C295.436 308.711 304.659 327.145 313.516 338.618C314.992 340.531 316.458 342.271 317.857 343.793C320.597 346.775 323.105 349.023 324.977 350.563C326.945 352.195 328.199 353.046 328.354 353.146L328.363 353.155L327.582 357.233L323.289 379.583L324.379 516.785L180.937 519.296C180.937 519.296 177.502 351.506 177.464 351.397C177.464 351.397 177.464 351.397 177.473 351.388L177.541 351.352C178.12 350.962 182.095 348.18 186.677 342.678V342.669C191.887 336.443 197.859 326.737 200.551 313.097V313.088C201.93 306.074 202.432 297.989 201.486 288.827C201.486 288.818 201.486 288.818 201.486 288.8C201.486 288.791 201.486 288.763 201.477 288.754V288.691C201.322 287.232 201.139 285.746 200.908 284.223C200.898 284.187 200.898 284.15 200.898 284.114C200.888 284.005 200.869 283.87 200.85 283.734L200.975 284.087L203.291 290.123C203.667 291.065 204.323 291.89 205.172 292.47C205.239 292.506 205.297 292.552 205.365 292.597C205.481 292.67 205.606 292.742 205.741 292.815L208.095 293.984C208.095 293.984 245.904 352.385 280.482 296.657L283.318 295.379L291.567 291.655C293.178 290.929 294.432 289.624 295.079 288.047L297.317 282.709L297.278 282.8Z" fill="white"/>
<path d="M280.493 296.638C275.824 304.16 271.106 309.589 266.427 313.368C266.089 313.64 265.761 313.912 265.433 314.157C235.776 336.714 208.097 293.965 208.097 293.965L205.743 292.796C205.618 292.723 205.483 292.651 205.367 292.578V293.475L205.55 293.774C205.627 293.901 206.525 295.306 208.097 297.463C210.171 300.254 213.403 304.278 217.571 308.348C227.383 317.918 237.667 322.966 247.315 322.966H247.469C253.702 322.93 259.712 320.863 265.424 316.785C265.761 316.549 266.089 316.314 266.417 316.06C272.11 311.773 277.512 305.484 282.606 297.227C282.732 297.028 282.867 296.838 282.983 296.638L283.33 295.37L280.493 296.638Z" fill="#F2F2F2"/>
<g opacity="0.15">
<path opacity="0.15" d="M201.979 298.751C201.97 299.866 201.941 300.971 201.893 302.05C201.854 302.702 201.815 303.355 201.777 303.989C201.729 304.624 201.671 305.267 201.613 305.892C201.565 306.481 201.497 307.061 201.43 307.632C201.362 308.149 201.285 308.657 201.227 309.146C201.179 309.554 201.111 309.943 201.044 310.333C200.995 310.714 200.928 311.094 200.86 311.466C200.783 311.946 200.696 312.427 200.59 312.889C200.397 313.913 200.175 314.901 199.944 315.871C199.78 316.596 199.596 317.312 199.404 317.991C198.979 319.559 198.506 321.091 198.005 322.541C197.976 322.586 197.966 322.622 197.956 322.677C197.715 323.366 197.464 324.027 197.223 324.68C197.175 324.807 197.117 324.924 197.078 325.051C196.316 326.991 195.496 328.812 194.638 330.516C194.609 330.552 194.599 330.598 194.57 330.643C194.261 331.259 193.943 331.857 193.634 332.438C193.625 332.465 193.605 332.483 193.596 332.51C193.287 333.072 192.969 333.616 192.66 334.141C191.705 335.773 190.73 337.286 189.756 338.673C189.727 338.7 189.717 338.736 189.679 338.772C189.341 339.244 189.013 339.706 188.675 340.15C188.019 341.038 187.363 341.872 186.698 342.642C185.723 343.82 184.768 344.881 183.871 345.814C183.533 346.159 183.215 346.494 182.896 346.793C180.388 349.258 178.449 350.708 177.754 351.189C177.677 351.252 177.6 351.297 177.561 351.324L177.494 351.361C190.885 330.117 191.618 298.823 188.926 272.568C188.926 272.487 188.916 272.396 188.897 272.323C187.778 261.394 186.061 251.352 184.411 243.286C183.34 237.993 182.298 233.543 181.478 230.263C182.057 232.402 182.636 234.504 183.215 236.561C183.475 237.486 183.716 238.392 183.977 239.289C184.015 239.398 184.044 239.507 184.083 239.634C184.363 240.64 184.652 241.637 184.932 242.615C185.328 244.029 185.733 245.407 186.119 246.73C186.35 247.5 186.572 248.252 186.784 248.987C187.141 250.219 187.489 251.379 187.826 252.512C188.048 253.273 188.26 253.998 188.482 254.714C188.859 255.956 189.206 257.125 189.534 258.213C189.659 258.62 189.775 259.01 189.891 259.391C189.958 259.572 190.007 259.771 190.055 259.944C190.171 260.315 190.286 260.678 190.393 261.022C190.711 262.055 191 262.998 191.251 263.813C191.328 264.085 191.415 264.339 191.492 264.584C191.685 265.209 191.849 265.735 191.984 266.179C192.033 266.324 192.071 266.451 192.11 266.569C192.341 267.285 192.457 267.665 192.457 267.665L200.86 283.679C200.889 283.842 200.909 284.015 200.928 284.169C201.044 284.93 201.15 285.682 201.237 286.425C201.323 287.178 201.42 287.912 201.497 288.637V288.7C201.507 288.709 201.507 288.736 201.507 288.745C201.507 288.754 201.507 288.754 201.507 288.773C201.536 289.063 201.555 289.344 201.574 289.625C201.632 290.277 201.69 290.92 201.738 291.555C201.777 292.09 201.806 292.624 201.835 293.15C201.873 293.857 201.912 294.564 201.931 295.253C201.951 295.76 201.951 296.249 201.96 296.748C201.97 297.446 201.979 298.107 201.979 298.751Z" fill="black"/>
</g>
<g opacity="0.35">
<path opacity="0.35" d="M271.233 615.462L271.204 617.12L269.641 617.084L271.233 615.462Z" fill="black"/>
</g>
<g opacity="0.6">
<path opacity="0.6" d="M336.419 532.129C336.361 532.093 336.294 532.066 336.236 532.057L336.381 532.102L336.419 532.129Z" fill="black"/>
</g>
<path d="M257.599 68.3002C255.728 73.1488 253.74 78.1968 250.624 82.5651C250.258 83.0727 249.872 83.5621 249.486 84.0514C249.293 84.2961 248.878 84.8218 248.617 84.9668C247.392 85.6556 245.723 84.994 243.987 84.124C241.816 83.0636 239.819 81.1966 239.385 79.5019C238.507 76.1396 239.963 72.7319 240.359 69.3152C240.967 64.0406 238.979 58.8204 238.265 53.5549C236.751 42.2988 241.073 30.4627 236.481 19.8229L236.51 19.7866C236.992 17.8834 239.5 16.7687 241.777 17.0406C243.456 25.8497 244.218 34.7766 246.186 43.5404C248.154 52.3223 251.435 61.0589 257.599 68.3002Z" fill="#F6C48D"/>
<path d="M237.926 19.8594C237.366 17.9834 234.935 17.0409 232.793 17.4124C231.655 26.2397 231.414 35.1394 230.015 43.9304C228.616 52.7304 225.983 61.5577 220.532 69.0164C222.799 74.291 226.175 79.5565 230.024 84.0336C232.34 86.7253 237.705 82.7104 238.351 79.3481C238.998 75.9858 237.434 72.6416 236.884 69.2702C236.035 64.059 237.646 58.7935 238.032 53.528C238.862 42.281 234.155 30.7167 237.936 19.941L237.926 19.8594Z" fill="#F6C48D"/>
<path d="M268.925 233.933C269.484 234.105 270.054 233.688 270.372 233.217C270.69 232.746 270.874 232.184 271.289 231.794C272.06 231.069 273.401 231.196 274.27 231.821C275.138 232.447 275.62 233.435 275.997 234.404C276.682 236.153 277.145 238.002 277.096 239.869C277.048 241.736 276.44 243.621 275.186 245.053C274.781 245.515 274.289 245.941 273.691 246.141C273.093 246.34 272.359 246.277 271.906 245.851C271.723 245.688 271.588 245.47 271.424 245.289C270.883 244.682 269.986 244.374 269.166 244.537C269.176 241.066 268.925 237.404 268.925 233.933Z" fill="#F6C48D"/>
<g opacity="0.15">
<path opacity="0.15" d="M274.694 244.084L274.154 243.749C275.196 242.217 275.669 240.305 275.466 238.492C275.263 236.68 274.366 234.912 273.006 233.625L273.459 233.19C274.945 234.586 275.881 236.444 276.103 238.429C276.334 240.414 275.833 242.416 274.694 244.084Z" fill="black"/>
</g>
<g opacity="0.15">
<path opacity="0.15" d="M214.251 244.637C213.615 244.6 212.988 244.31 212.553 243.884C211.782 243.141 211.502 242.09 211.347 241.256C211.029 239.543 211.039 237.812 211.357 236.108L211.994 236.217C211.685 237.858 211.675 239.516 211.984 241.147C212.119 241.891 212.36 242.824 213.007 243.449C213.547 243.975 214.531 244.247 215.178 243.776L215.563 244.265C215.168 244.564 214.705 244.673 214.251 244.637Z" fill="black"/>
</g>
<g opacity="0.15">
<path opacity="0.15" d="M244.798 250.183C244.123 250.183 243.495 250.002 242.994 249.639C242.492 249.267 242.154 248.669 242.097 248.035C242.048 247.482 242.212 246.975 242.569 246.603L243.042 247.02C242.81 247.265 242.704 247.6 242.733 247.981C242.772 248.434 243.023 248.887 243.38 249.15C244.026 249.621 245.049 249.703 245.985 249.34C246.419 249.177 246.747 248.95 246.959 248.687L247.47 249.059C247.191 249.413 246.766 249.703 246.226 249.911C245.763 250.092 245.271 250.183 244.798 250.183Z" fill="black"/>
</g>
<g opacity="0.15">
<path opacity="0.15" d="M244.508 261.928C244.199 261.928 243.88 261.929 243.562 261.838C243.186 261.729 242.877 261.503 242.732 261.213L243.311 260.95C243.379 261.086 243.533 261.194 243.736 261.249C243.967 261.312 244.228 261.312 244.508 261.312C244.633 261.312 244.758 261.312 244.845 261.276C244.913 261.249 244.951 261.203 244.951 261.185L245.598 261.203C245.588 261.475 245.395 261.729 245.086 261.847C244.893 261.928 244.681 261.928 244.508 261.928Z" fill="black"/>
</g>
<g opacity="0.15">
<path opacity="0.15" d="M294.069 395.606C291.975 396.159 289.833 396.431 287.663 396.34C287.663 396.34 290.2 396.277 294.069 395.606Z" fill="black"/>
</g>
<g opacity="0.15">
<path opacity="0.15" d="M259.568 94.4466C255.699 90.2505 251.975 86.6797 248.521 83.988L248.695 83.6708L249.206 82.7192H249.283C249.505 82.7192 249.746 82.7283 249.978 82.7464C250.798 82.8099 251.589 82.973 252.322 83.3264C253.364 83.843 254.165 84.704 254.85 85.6103C256.365 87.5769 257.416 89.8245 258.458 92.054C258.825 92.8515 259.211 93.64 259.568 94.4466Z" fill="black"/>
</g>
<g opacity="0.15">
<path opacity="0.15" d="M180.313 164.457C189.42 128.496 224.769 91.2386 230.249 85.6377C213.076 103.473 191.523 142.824 180.313 164.457Z" fill="black"/>
</g>
<path d="M494.7 636.724V636.823C494.546 640.947 493.572 645.642 490.803 650.064C488.198 654.306 483.934 658.293 477.22 661.302C474.595 662.489 471.605 663.731 468.18 664.701C467.398 664.936 466.598 665.145 465.758 665.326C462.7 666.042 459.313 666.504 455.589 666.513C455.058 666.513 454.547 666.504 454.035 666.486C404.533 665.045 323.165 647.554 310.98 644.79C310.372 644.654 309.947 644.554 309.696 644.491L309.436 642.896L308.385 636.479L305.634 617.855L415.946 614.148H416.024C430.264 610.994 446.54 610.668 460.876 613.07C472.502 615.027 483.808 619.296 493.311 625.966C493.388 626.22 493.465 626.519 493.552 626.836C493.601 627.045 493.668 627.262 493.716 627.498C493.832 627.969 493.948 628.476 494.054 629.047C494.083 629.183 494.102 629.328 494.131 629.473C494.363 630.688 494.546 632.093 494.642 633.624C494.652 633.796 494.652 633.969 494.671 634.141C494.71 634.984 494.72 635.836 494.7 636.724Z" fill="#F6C48D"/>
<path d="M310.95 644.391L309.088 644.508L294.414 645.397C293.189 645.505 291.848 645.94 290.536 646.548C286.001 648.623 282.682 652.538 281.206 657.133C279.971 660.949 278.708 664.347 277.608 667.066C275.534 672.268 274.048 677.651 273.18 683.153L270.652 699.13C269.948 702.991 268.549 702.375 268.549 702.375L268.25 704.958L268.047 706.743C267.478 707.16 266.947 707.45 266.436 707.659H266.426V707.668C260.724 709.915 258.708 699.946 258.708 699.946C263.619 662.109 259.084 629.591 259.084 629.591C256.18 615.716 271.231 615.462 271.231 615.462L307.033 617.864L310.95 644.391Z" fill="#F6C48D"/>
<g opacity="0.15">
<path opacity="0.15" d="M490.803 650.064C488.198 654.306 483.935 658.293 477.221 661.302C474.596 662.489 471.606 663.731 468.181 664.701C467.727 664.746 467.264 664.846 466.801 665.009C466.454 665.118 466.107 665.226 465.759 665.326C462.537 666.232 458.958 666.513 455.59 666.513C455.06 666.513 454.549 666.504 454.037 666.486C402.953 665.199 323.05 647.608 310.981 644.79C310.393 644.654 309.968 644.554 309.698 644.49L294.416 645.388C293.191 645.487 291.859 645.931 290.547 646.53C286.013 648.605 282.684 652.52 281.218 657.115C279.973 660.921 278.71 664.329 277.619 667.057C275.545 672.25 274.059 677.642 273.201 683.135L270.673 699.112C269.969 702.973 268.56 702.357 268.56 702.357L268.261 704.94C268.261 704.94 266.447 707.641 266.438 707.641L268.184 693.194L270.712 677.217C271.59 671.724 273.066 666.332 275.13 661.139C276.22 658.411 277.484 655.012 278.729 651.197C280.205 646.602 283.524 642.687 288.058 640.612C308.81 631.114 335.39 642.551 355.853 646.892C389.253 653.97 423.705 659.716 457.945 660.722C463.28 660.894 469.194 661.719 474.413 660.514C477.385 659.834 480.182 658.574 482.72 656.952C485.74 655.049 488.381 652.638 490.803 650.064Z" fill="black"/>
</g>
<path d="M309.554 644.473C309.593 644.482 309.631 644.5 309.699 644.509L309.709 644.554L309.554 644.473Z" fill="#0C1153"/>
<g opacity="0.15">
<path opacity="0.15" d="M263.226 964.165L262.107 963.558L267.133 955.103L268.252 955.71L263.226 964.165Z" fill="black"/>
</g>
<g opacity="0.15">
<path opacity="0.15" d="M253.792 963.041L252.682 962.425L257.477 954.504L258.586 955.12L253.792 963.041Z" fill="black"/>
</g>
<g opacity="0.15">
<path opacity="0.15" d="M246.275 959.371L245.223 958.655L248.967 953.598L250.018 954.305L246.275 959.371Z" fill="black"/>
</g>
<g opacity="0.15">
<path opacity="0.15" d="M239.907 955.193L238.903 954.431L241.846 950.897L242.85 951.667L239.907 955.193Z" fill="black"/>
</g>
<path d="M217.531 237.522C217.531 237.522 217.714 237.223 217.965 236.688C218.775 235.012 220.367 231.033 219.615 226.9C219.615 226.9 224.38 222.668 225.654 218.336C225.799 217.856 226.262 217.529 226.783 217.502C229.397 217.366 236.768 216.831 239.46 215.137C239.817 214.91 240.27 214.892 240.656 215.064L249.04 218.771C249.773 219.097 250.622 218.698 250.806 217.946C251.288 215.989 253.227 214.711 255.311 214.974C258.331 215.363 262.778 216.387 267.033 219.079C267.332 219.269 267.535 219.587 267.593 219.931L269.696 233.842L270.564 233.534L271.268 215.599C271.288 215.091 270.969 214.62 270.468 214.43L251.819 207.334C251.674 207.279 251.51 207.252 251.346 207.252H225.461C225.287 207.252 225.123 207.288 224.969 207.352L217.704 210.288C217.222 210.478 216.923 210.931 216.932 211.43L217.531 237.522Z" fill="#21252B"/>
<path d="M253.433 234.668C254.472 234.668 255.314 234.465 255.314 234.214C255.314 233.964 254.472 233.761 253.433 233.761C252.394 233.761 251.551 233.964 251.551 234.214C251.551 234.465 252.394 234.668 253.433 234.668Z" fill="#21252B"/>
<path d="M234.454 234.668C235.493 234.668 236.335 234.465 236.335 234.214C236.335 233.964 235.493 233.761 234.454 233.761C233.415 233.761 232.572 233.964 232.572 234.214C232.572 234.465 233.415 234.668 234.454 234.668Z" fill="#21252B"/>
<path d="M257.455 228.297C258.574 228.84 259.548 229.765 259.886 230.925C257.397 229.049 254.348 227.916 251.193 227.653C253.21 227.381 255.573 227.381 257.455 228.297Z" fill="#21252B"/>
<path d="M230.439 228.297C229.32 228.84 228.347 229.765 228.009 230.925C230.498 229.049 233.547 227.916 236.702 227.653C234.695 227.381 232.321 227.381 230.439 228.297Z" fill="#21252B"/>
<path opacity="0.19" d="M233.055 252.004L236.489 255.611H251.26L254.907 252.439" stroke="black" stroke-width="0.75" stroke-miterlimit="10" stroke-linecap="round" stroke-linejoin="round"/>
<defs>
<linearGradient id="paint0_linear" x1="430" y1="335" x2="430" y2="835" gradientUnits="userSpaceOnUse">
<stop offset="0.427083" stop-color="#B00B5D"/>
<stop offset="0.75" stop-color="#F8A90A"/>
</linearGradient>
<linearGradient id="paint1_linear" x1="150" y1="207" x2="150" y2="507" gradientUnits="userSpaceOnUse">
<stop offset="0.427083" stop-color="#B00B5D"/>
<stop offset="0.75" stop-color="#F8A90A"/>
</linearGradient>
<linearGradient id="paint2_linear" x1="386.443" y1="44" x2="386.443" y2="344" gradientUnits="userSpaceOnUse">
<stop offset="0.427083" stop-color="#B00B5D"/>
<stop offset="0.75" stop-color="#F8A90A"/>
</linearGradient>
<linearGradient id="paint3_linear" x1="120" y1="688" x2="120" y2="788" gradientUnits="userSpaceOnUse">
<stop offset="0.427083" stop-color="#B00B5D"/>
<stop offset="0.75" stop-color="#F8A90A"/>
</linearGradient>
<linearGradient id="paint4_linear" x1="356" y1="851" x2="356" y2="951" gradientUnits="userSpaceOnUse">
<stop offset="0.427083" stop-color="#B00B5D"/>
<stop offset="0.75" stop-color="#F8A90A"/>
</linearGradient>
</defs>
</svg>
